# xmcd
# 
# Track frame offsets:
#     150
#     9226
#     48057
#     84356
#     97198
#     128816
#     159317
#     191677
#     201516
#     231231
# 
# Disc length: 3533
# 
# Revision: 1
# Processed by: cddbd v1.5.2PL0 Copyright (c) Steve Scherf et al.
# Submitted via: BonkEnc v1.0.8
# 
DISCID=790dcb0a
DTITLE=Marc Copland, Drew Gress, Bill Stewart - [New York Trio Recordings Vol. 3] Night Whispers
DYEAR=2008
DGENRE=Contemporary Jazz
TTITLE0=Emily - Take One
TTITLE1=The Bell Tolls
TTITLE2=Night Whispers
TTITLE3=Emily - Take Two
TTITLE4=So What
TTITLE5=Like It Never Was
TTITLE6=Space Acres
TTITLE7=Emily - Take Three
TTITLE8=Scattered Leaves
TTITLE9=I Fall In Love Too Easily
EXTD=YEAR: 2008
EXTT0=
EXTT1=
EXTT2=
EXTT3=
EXTT4=
EXTT5=
EXTT6=
EXTT7=
EXTT8=
EXTT9=
PLAYORDER=
